<svg xmlns="http://www.w3.org/2000/svg" width="780" height="440" viewBox="0 0 780 440"><defs><style>.d{fill:#fff;}.e{fill:#9180f4;}.f{fill:#483a9c;}.g{fill:#98e58e;}.h{fill:#ff95c1;}.i{fill:#162020;}.j{fill:#c1c1f7;}.k{fill:#ff7f6e;}.l{fill:#ffbc00;}.m{fill:#3896e3;}</style></defs><g id="a"><rect class="f" x=".0018" y=".0014" width="780" height="440"></rect></g><g id="b"><g><path class="m" d="M433.991,70.7872h-87.982c-11.9966,0-21.7218,9.7252-21.7218,21.7218v6.2062c0,11.9966,9.7251,21.7217,21.7218,21.7217h36.6581l7.3329,12.701,7.3329-12.701h36.6581c11.9966,0,21.7218-9.7251,21.7218-21.7217v-6.2062c0-11.9966-9.7251-21.7218-21.7218-21.7218Z"></path><path d="M433.991,71.7872c11.426,0,20.7218,9.2957,20.7218,20.7218v6.2062c0,11.426-9.2958,20.7217-20.7218,20.7217h-37.2355l-.2886,.5-6.4669,11.201-6.4669-11.201-.2886-.5h-37.2355c-11.426,0-20.7218-9.2957-20.7218-20.7217v-6.2062c0-11.426,9.2958-20.7218,20.7218-20.7218h87.9819m0-1h-87.9819c-11.9967,0-21.7218,9.7252-21.7218,21.7218v6.2062c0,11.9966,9.7251,21.7217,21.7218,21.7217h36.6581l7.3329,12.701,7.3329-12.701h36.6581c11.9967,0,21.7218-9.7251,21.7218-21.7217v-6.2062c0-11.9966-9.7251-21.7218-21.7218-21.7218h0Z"></path></g><g><rect x="389.5" y="190.3149" width="1" height="53.3003"></rect><g><circle class="j" cx="390" cy="175.5295" r="15.9505"></circle><path d="M390,191.98c-9.0703,0-16.4502-7.3799-16.4502-16.4507s7.3799-16.4502,16.4502-16.4502,16.4502,7.3794,16.4502,16.4502-7.3799,16.4507-16.4502,16.4507Zm0-31.9009c-8.5195,0-15.4502,6.9312-15.4502,15.4502s6.9307,15.4507,15.4502,15.4507,15.4502-6.9312,15.4502-15.4507-6.9307-15.4502-15.4502-15.4502Z"></path></g><g><g><path class="j" d="M286.5764,316.9598v-62.0717c0-8.4636,4.3081-15.3248,9.6223-15.3248h2.7492c5.3142,0,9.6223,6.8611,9.6223,15.3248v62.0717c0,8.4636-4.3081,15.3248-9.6223,15.3248h-2.7492c-5.3142,0-9.6223-6.8611-9.6223-15.3248Z"></path><path d="M298.9479,240.5633c4.7544,0,8.6223,6.4261,8.6223,14.3248v62.0717c0,7.8987-3.8679,14.3248-8.6223,14.3248h-2.7493c-2.2136,0-4.3292-1.4278-5.957-4.0203-1.7188-2.7372-2.6652-6.3968-2.6652-10.3045v-62.0717c0-7.8987,3.8679-14.3248,8.6222-14.3248h2.7493m0-1h-2.7493c-5.3142,0-9.6222,6.8611-9.6222,15.3248v62.0717c-.0001,8.4637,4.308,15.3248,9.6222,15.3248h2.7493c5.3142,0,9.6223-6.8611,9.6223-15.3248v-62.0717c0-8.4637-4.3081-15.3248-9.6223-15.3248h0Z"></path></g><g><path class="j" d="M471.4299,316.9598v-62.0717c0-8.4636,4.3081-15.3248,9.6223-15.3248h2.7492c5.3142,0,9.6223,6.8611,9.6223,15.3248v62.0717c0,8.4636-4.3081,15.3248-9.6223,15.3248h-2.7492c-5.3142,0-9.6223-6.8611-9.6223-15.3248Z"></path><path d="M483.8014,240.5633c2.2136,0,4.3292,1.4277,5.957,4.0203,1.7188,2.7372,2.6652,6.3968,2.6652,10.3045v62.0717c0,7.8987-3.8679,14.3248-8.6222,14.3248h-2.7493c-4.7544,0-8.6223-6.4261-8.6223-14.3248v-62.0717c0-7.8987,3.8679-14.3248,8.6223-14.3248h2.7493m0-1h-2.7493c-5.3142,0-9.6223,6.8611-9.6223,15.3248v62.0717c0,8.4637,4.3081,15.3248,9.6223,15.3248h2.7493c5.3142,0,9.6222-6.8611,9.6222-15.3248v-62.0717c.0001-8.4637-4.308-15.3248-9.6222-15.3248h0Z"></path></g></g><g><path class="j" d="M390.0003,207.9091h0c-50.5068,0-91.4505,40.9436-91.4505,91.4501v53.5168c27.7265,10.4708,58.7268,16.3368,91.4505,16.3368s63.7238-5.866,91.45-16.3368v-53.5168c0-50.5065-40.9435-91.4501-91.45-91.4501Z"></path><path d="M390.0002,208.9091c49.8744,0,90.4501,40.5757,90.4501,90.4501v52.8245c-28.4073,10.6371-58.8333,16.0291-90.4501,16.0291s-62.0428-5.392-90.4506-16.0291v-52.8244c0-49.8744,40.5759-90.4501,90.4506-90.4501m0-1c-50.5067,0-91.4506,40.9436-91.4506,91.4501v53.5168c27.7266,10.4708,58.7268,16.3368,91.4506,16.3368s63.7238-5.866,91.4501-16.3368v-53.5168c0-50.5065-40.9435-91.4501-91.4501-91.4501h0Z"></path></g><g><g><rect class="d" x="324.2873" y="270.7453" width="131.4255" height="49.6496" rx="21.7217" ry="21.7217"></rect><path d="M433.9911,271.7453c11.426,0,20.7217,9.2957,20.7217,20.7217v6.2062c0,11.426-9.2957,20.7217-20.7217,20.7217h-87.9822c-11.426,0-20.7217-9.2957-20.7217-20.7217v-6.2062c0-11.426,9.2957-20.7217,20.7217-20.7217h87.9822m0-1h-87.9822c-11.9965,0-21.7217,9.7252-21.7217,21.7217v6.2062c0,11.9966,9.7252,21.7217,21.7217,21.7217h87.9822c11.9966,0,21.7217-9.7251,21.7217-21.7217v-6.2062c0-11.9966-9.7251-21.7217-21.7217-21.7217h0Z"></path></g><g><g><circle class="e" cx="350.0247" cy="295.1155" r="7.8034"></circle><path d="M350.0244,303.4189c-4.5781,0-8.3027-3.7246-8.3027-8.3037s3.7246-8.3027,8.3027-8.3027,8.3037,3.7246,8.3037,8.3027-3.7246,8.3037-8.3037,8.3037Zm0-15.6064c-4.0264,0-7.3027,3.2764-7.3027,7.3027s3.2764,7.3037,7.3027,7.3037,7.3037-3.2764,7.3037-7.3037-3.2764-7.3027-7.3037-7.3027Z"></path></g><g><circle class="e" cx="390" cy="295.1155" r="7.8034"></circle><path d="M390,303.4189c-4.5791,0-8.3037-3.7246-8.3037-8.3037s3.7246-8.3027,8.3037-8.3027,8.3037,3.7246,8.3037,8.3027-3.7246,8.3037-8.3037,8.3037Zm0-15.6064c-4.0273,0-7.3037,3.2764-7.3037,7.3027s3.2764,7.3037,7.3037,7.3037,7.3037-3.2764,7.3037-7.3037-3.2764-7.3027-7.3037-7.3027Z"></path></g><g><circle class="e" cx="429.9753" cy="295.1155" r="7.8034"></circle><path d="M429.9756,303.4189c-4.5791,0-8.3037-3.7246-8.3037-8.3037s3.7246-8.3027,8.3037-8.3027,8.3027,3.7246,8.3027,8.3027-3.7246,8.3037-8.3027,8.3037Zm0-15.6064c-4.0273,0-7.3037,3.2764-7.3037,7.3027s3.2764,7.3037,7.3037,7.3037,7.3027-3.2764,7.3027-7.3037-3.2764-7.3027-7.3027-7.3027Z"></path></g></g></g></g><g><g><g><path class="h" d="M661.4664,196.5761h-87.982c-11.9966,0-21.7218,9.7252-21.7218,21.7218v6.2062c0,11.9966,9.7251,21.7217,21.7218,21.7217h8.08c-.287,3.4749-.3851,7.0179-3.3058,9.3892l-.0413,.0344c-1.1485,.9742-.0491,2.8274,1.3975,2.4086,4.6104-1.335,11.8719-4.815,15.8774-11.8322h65.9742c11.9966,0,21.7218-9.7251,21.7218-21.7217v-6.2062c0-11.9966-9.7251-21.7218-21.7218-21.7218Z"></path><path d="M661.4663,197.576c11.426,0,20.7218,9.2957,20.7218,20.7218v6.2062c0,11.426-9.2958,20.7217-20.7218,20.7217h-66.5548l-.2878,.5043c-4.4041,7.7156-12.8143,10.6514-15.287,11.3674-.0486,.0141-.0955,.0212-.1394,.0212-.2128,0-.373-.1726-.4319-.333-.0715-.1949,.0098-.2982,.1234-.3943,3.071-2.4933,3.3502-6.0221,3.6201-9.4347l.052-.6485,.0894-1.0823h-9.1659c-11.426,0-20.7218-9.2957-20.7218-20.7217v-6.2062c0-11.426,9.2958-20.7218,20.7218-20.7218h87.9819m0-1h-87.9819c-11.9967,0-21.7218,9.7252-21.7218,21.7218v6.2062c0,11.9966,9.7251,21.7217,21.7218,21.7217h8.08c-.287,3.4749-.385,7.0179-3.3058,9.3892l-.0414,.0344c-1.0348,.8778-.2446,2.4692,.9801,2.4692,.1346,0,.2743-.0192,.4175-.0606,4.6104-1.335,11.8719-4.815,15.8774-11.8322h65.9741c11.9967,0,21.7218-9.7251,21.7218-21.7217v-6.2062c0-11.9966-9.7251-21.7218-21.7218-21.7218h0Z"></path></g><g><path class="i" d="M628.3223,231.4229h-54.8516c-.3447,0-.625-.2803-.625-.625s.2803-.625,.625-.625h54.8516c.3447,0,.625,.2803,.625,.625s-.2803,.625-.625,.625Z"></path><path class="i" d="M661.4805,231.4229h-22.0791c-.3447,0-.625-.2803-.625-.625s.2803-.625,.625-.625h22.0791c.3447,0,.625,.2803,.625,.625s-.2803,.625-.625,.625Z"></path></g><g><path class="i" d="M595.1035,215.0786h-21.8486c-.3447,0-.625-.2798-.625-.625s.2803-.625,.625-.625h21.8486c.3447,0,.625,.2798,.625,.625s-.2803,.625-.625,.625Z"></path><path class="i" d="M661.6963,215.0786h-56.2373c-.3447,0-.625-.2798-.625-.625s.2803-.625,.625-.625h56.2373c.3447,0,.625,.2798,.625,.625s-.2803,.625-.625,.625Z"></path></g></g><g><g><path class="l" d="M600.171,113.987h-87.982c-11.9966,0-21.7218,9.7252-21.7218,21.7218v6.2062c0,11.9966,9.7251,21.7217,21.7218,21.7217h8.08c-.287,3.4749-.3851,7.0179-3.3058,9.3892l-.0413,.0344c-1.1485,.9742-.0491,2.8274,1.3975,2.4086,4.6104-1.335,11.8719-4.815,15.8774-11.8322h65.9742c11.9966,0,21.7218-9.7251,21.7218-21.7217v-6.2062c0-11.9966-9.7251-21.7218-21.7218-21.7218Z"></path><path d="M600.171,114.987c11.426,0,20.7217,9.2957,20.7217,20.7217v6.2062c0,11.426-9.2957,20.7217-20.7217,20.7217h-66.5549l-.2878,.5043c-4.4041,7.7156-12.8143,10.6514-15.287,11.3674-.0486,.0141-.0955,.0212-.1394,.0212-.2128,0-.3729-.1726-.4319-.3329-.0714-.1948,.0098-.2982,.1234-.3944,3.071-2.4933,3.3502-6.0221,3.6201-9.4347l.052-.6485,.0894-1.0823h-9.1659c-11.426,0-20.7218-9.2957-20.7218-20.7217v-6.2062c0-11.426,9.2958-20.7217,20.7218-20.7217h87.9821m0-1h-87.9821c-11.9967,0-21.7218,9.7252-21.7218,21.7217v6.2062c0,11.9966,9.7251,21.7217,21.7218,21.7217h8.08c-.287,3.4749-.385,7.0179-3.3058,9.3892l-.0413,.0344c-1.0349,.8778-.2448,2.4693,.98,2.4693,.1346,0,.2743-.0192,.4175-.0607,4.6104-1.335,11.8719-4.815,15.8774-11.8322h65.9742c11.9966,0,21.7217-9.7251,21.7217-21.7217v-6.2062c0-11.9966-9.7251-21.7217-21.7217-21.7217h0Z"></path></g><g><path class="i" d="M567.0273,148.8335h-54.8525c-.3447,0-.625-.2798-.625-.625s.2803-.625,.625-.625h54.8525c.3447,0,.625,.2798,.625,.625s-.2803,.625-.625,.625Z"></path><path class="i" d="M600.1846,148.8335h-22.0791c-.3447,0-.625-.2798-.625-.625s.2803-.625,.625-.625h22.0791c.3447,0,.625,.2798,.625,.625s-.2803,.625-.625,.625Z"></path></g><g><path class="i" d="M533.8076,132.4893h-21.8486c-.3447,0-.625-.2798-.625-.625s.2803-.625,.625-.625h21.8486c.3447,0,.625,.2798,.625,.625s-.2803,.625-.625,.625Z"></path><path class="i" d="M600.4004,132.4893h-56.2373c-.3447,0-.625-.2798-.625-.625s.2803-.625,.625-.625h56.2373c.3447,0,.625,.2798,.625,.625s-.2803,.625-.625,.625Z"></path></g></g><g><g><path class="k" d="M118.5336,196.5761h87.982c11.9966,0,21.7218,9.7252,21.7218,21.7218v6.2062c0,11.9966-9.7251,21.7217-21.7218,21.7217h-8.08c.287,3.4749,.3851,7.0179,3.3058,9.3892l.0413,.0344c1.1485,.9742,.0491,2.8274-1.3975,2.4086-4.6104-1.335-11.8719-4.815-15.8774-11.8322H118.5336c-11.9966,0-21.7218-9.7251-21.7218-21.7217v-6.2062c0-11.9966,9.7251-21.7218,21.7218-21.7218Z"></path><path d="M206.5156,197.576c11.426,0,20.7218,9.2957,20.7218,20.7218v6.2062c0,11.426-9.2958,20.7217-20.7218,20.7217h-9.1659l.0894,1.0823,.052,.6485c.2699,3.4126,.5491,6.9414,3.6449,9.4554,.0889,.0754,.1702,.1788,.0986,.3737-.0588,.1604-.2191,.333-.4319,.333-.0439,0-.0908-.0071-.1393-.0212-2.4728-.716-10.8831-3.6518-15.2871-11.3674l-.2878-.5043H118.5336c-11.426,0-20.7217-9.2957-20.7217-20.7217v-6.2062c0-11.426,9.2958-20.7218,20.7217-20.7218h87.982m0-1H118.5336c-11.9966,0-21.7217,9.7252-21.7217,21.7218v6.2062c0,11.9966,9.7251,21.7217,21.7217,21.7217h65.9742c4.0054,7.0172,11.267,10.4972,15.8774,11.8322,.1432,.0414,.2828,.0606,.4175,.0606,1.2247,0,2.0149-1.5914,.9801-2.4692l-.0414-.0344c-2.9208-2.3713-3.0188-5.9142-3.3058-9.3892h8.08c11.9967,0,21.7218-9.7251,21.7218-21.7217v-6.2062c0-11.9966-9.7251-21.7218-21.7218-21.7218h0Z"></path></g><g><path class="i" d="M206.5293,231.4229h-54.8516c-.3447,0-.625-.2803-.625-.625s.2803-.625,.625-.625h54.8516c.3447,0,.625,.2803,.625,.625s-.2803,.625-.625,.625Z"></path><path class="i" d="M140.5986,231.4229h-22.0791c-.3447,0-.625-.2803-.625-.625s.2803-.625,.625-.625h22.0791c.3447,0,.625,.2803,.625,.625s-.2803,.625-.625,.625Z"></path></g><g><path class="i" d="M206.7451,215.0786h-21.8486c-.3447,0-.625-.2798-.625-.625s.2803-.625,.625-.625h21.8486c.3447,0,.625,.2798,.625,.625s-.2803,.625-.625,.625Z"></path><path class="i" d="M174.541,215.0786h-56.2373c-.3447,0-.625-.2798-.625-.625s.2803-.625,.625-.625h56.2373c.3447,0,.625,.2798,.625,.625s-.2803,.625-.625,.625Z"></path></g></g><g><g><path class="g" d="M179.829,113.987h87.982c11.9966,0,21.7218,9.7252,21.7218,21.7218v6.2062c0,11.9966-9.7251,21.7217-21.7218,21.7217h-8.08c.287,3.4749,.3851,7.0179,3.3058,9.3892l.0413,.0344c1.1485,.9742,.0491,2.8274-1.3975,2.4086-4.6104-1.335-11.8719-4.815-15.8774-11.8322h-65.9742c-11.9966,0-21.7218-9.7251-21.7218-21.7217v-6.2062c0-11.9966,9.7251-21.7218,21.7218-21.7218Z"></path><path d="M267.811,114.987c11.426,0,20.7218,9.2957,20.7218,20.7217v6.2062c0,11.426-9.2958,20.7217-20.7218,20.7217h-9.1659l.0894,1.0823,.052,.6485c.2699,3.4126,.5491,6.9414,3.6448,9.4554,.089,.0754,.1702,.1788,.0988,.3737-.059,.1604-.2191,.3329-.4319,.3329-.0439,0-.0908-.0071-.1393-.0212-2.4728-.716-10.8831-3.6518-15.2871-11.3674l-.2878-.5043h-66.5549c-11.426,0-20.7217-9.2957-20.7217-20.7217v-6.2062c0-11.426,9.2958-20.7217,20.7217-20.7217h87.982m0-1h-87.982c-11.9966,0-21.7217,9.7252-21.7217,21.7217v6.2062c0,11.9966,9.7251,21.7217,21.7217,21.7217h65.9742c4.0055,7.0172,11.2671,10.4972,15.8774,11.8322,.1432,.0415,.2828,.0607,.4175,.0607,1.2247,0,2.0149-1.5915,.98-2.4693l-.0413-.0344c-2.9208-2.3714-3.0188-5.9143-3.3058-9.3892h8.08c11.9967,0,21.7218-9.7251,21.7218-21.7217v-6.2062c0-11.9966-9.7251-21.7217-21.7218-21.7217h0Z"></path></g><g><path class="i" d="M267.8252,148.8335h-54.8525c-.3447,0-.625-.2798-.625-.625s.2803-.625,.625-.625h54.8525c.3447,0,.625,.2798,.625,.625s-.2803,.625-.625,.625Z"></path><path class="i" d="M201.8945,148.8335h-22.0791c-.3447,0-.625-.2798-.625-.625s.2803-.625,.625-.625h22.0791c.3447,0,.625,.2798,.625,.625s-.2803,.625-.625,.625Z"></path></g><g><path class="i" d="M268.041,132.4893h-21.8486c-.3447,0-.625-.2798-.625-.625s.2803-.625,.625-.625h21.8486c.3447,0,.625,.2798,.625,.625s-.2803,.625-.625,.625Z"></path><path class="i" d="M235.8369,132.4893h-56.2373c-.3447,0-.625-.2798-.625-.625s.2803-.625,.625-.625h56.2373c.3447,0,.625,.2798,.625,.625s-.2803,.625-.625,.625Z"></path></g></g></g><g><g><path class="i" d="M400.8477,105.6338h-54.8525c-.3447,0-.625-.2798-.625-.625s.2803-.625,.625-.625h54.8525c.3447,0,.625,.2798,.625,.625s-.2803,.625-.625,.625Z"></path><path class="i" d="M434.0049,105.6338h-22.0791c-.3447,0-.625-.2798-.625-.625s.2803-.625,.625-.625h22.0791c.3447,0,.625,.2798,.625,.625s-.2803,.625-.625,.625Z"></path></g><g><path class="i" d="M367.6279,89.2896h-21.8486c-.3447,0-.625-.2798-.625-.625s.2803-.625,.625-.625h21.8486c.3447,0,.625,.2798,.625,.625s-.2803,.625-.625,.625Z"></path><path class="i" d="M434.2207,89.2896h-56.2373c-.3447,0-.625-.2798-.625-.625s.2803-.625,.625-.625h56.2373c.3447,0,.625,.2798,.625,.625s-.2803,.625-.625,.625Z"></path></g></g></g><g id="c"></g></svg>