<?xml version="1.0" standalone="no"?>
<!DOCTYPE svg PUBLIC "-//W3C//DTD SVG 20010904//EN"
 "http://www.w3.org/TR/2001/REC-SVG-20010904/DTD/svg10.dtd">
<svg version="1.0" xmlns="http://www.w3.org/2000/svg"
 width="432.000000pt" height="432.000000pt" viewBox="0 0 432.000000 432.000000"
 preserveAspectRatio="xMidYMid meet">
<metadata>
Created by potrace 1.14, written by Peter Selinger 2001-2017
</metadata>
<g transform="translate(0.000000,432.000000) scale(0.100000,-0.100000)"
fill="#000000" stroke="none">
<path d="M1902 4304 c-208 -26 -358 -65 -554 -143 -490 -195 -918 -600 -1143
-1084 -87 -189 -139 -358 -179 -580 -27 -153 -28 -590 -1 -669 2 -7 6 -29 9
-48 26 -170 98 -390 187 -572 243 -495 690 -896 1199 -1075 164 -58 189 -66
260 -79 14 -2 45 -9 70 -14 219 -48 605 -48 820 0 25 5 56 12 70 14 105 20
293 85 420 144 41 19 77 35 80 35 13 -2 253 151 334 213 122 93 314 286 408
411 234 311 381 679 425 1060 15 132 7 520 -12 575 -2 7 -6 29 -9 48 -4 30
-24 117 -41 183 -3 9 -7 25 -9 35 -2 9 -12 37 -21 62 -9 25 -20 59 -24 75 -15
56 -101 239 -163 347 -161 281 -410 544 -687 725 -84 55 -291 165 -361 192
-199 76 -339 113 -545 145 -83 14 -430 14 -533 0z"/>
</g>
</svg>
